<svg xmlns="http://www.w3.org/2000/svg" viewBox="0 0 1002.73 1157.86"><defs><style>.a0d9646a-bd2e-4712-93d4-a3e46544d972,.b5cc16c7-ffaa-42ae-9901-4a9ef3f46171,.bce0d0cd-5411-4af4-9da3-b44f2e8f0218,.e54ac614-5ece-4acd-b01c-d01c5a8d03f5,.f7827923-5a53-43b5-9d5a-1a8bf76a6eb7,.f88e5f46-9248-4294-b607-77df4e54fe72{fill:none;}.afaa1083-7d0b-4656-9807-388bbc13fbda,.b5cc16c7-ffaa-42ae-9901-4a9ef3f46171,.e189dfdd-ec32-46dc-992d-1cca15622995{stroke:#000;}.a0d9646a-bd2e-4712-93d4-a3e46544d972,.b5cc16c7-ffaa-42ae-9901-4a9ef3f46171,.bce0d0cd-5411-4af4-9da3-b44f2e8f0218{stroke-miterlimit:10;}.b5cc16c7-ffaa-42ae-9901-4a9ef3f46171{stroke-width:2px;}.a0d9646a-bd2e-4712-93d4-a3e46544d972{stroke:#e6e7e8;}.a3e9d27e-5fd1-4267-a3a7-f0625d0498d5,.a70d5c3f-2864-47e6-b9fe-a02b313ee3a7,.bce0d0cd-5411-4af4-9da3-b44f2e8f0218,.f88e5f46-9248-4294-b607-77df4e54fe72{font-size:35px;}.a3e9d27e-5fd1-4267-a3a7-f0625d0498d5,.a49ddf5b-3f22-41b4-a9f0-1bd28f6300fa,.a70d5c3f-2864-47e6-b9fe-a02b313ee3a7,.afaa1083-7d0b-4656-9807-388bbc13fbda,.bce0d0cd-5411-4af4-9da3-b44f2e8f0218,.e189dfdd-ec32-46dc-992d-1cca15622995,.e54ac614-5ece-4acd-b01c-d01c5a8d03f5,.ef9df36c-2b55-44dc-a897-db9333f79bcd,.f7827923-5a53-43b5-9d5a-1a8bf76a6eb7,.f88e5f46-9248-4294-b607-77df4e54fe72{font-family:RobotoMono-Bold, Roboto Mono;font-weight:700;}.a70d5c3f-2864-47e6-b9fe-a02b313ee3a7,.afaa1083-7d0b-4656-9807-388bbc13fbda,.e189dfdd-ec32-46dc-992d-1cca15622995{opacity:0.2;}.a3e9d27e-5fd1-4267-a3a7-f0625d0498d5,.ef9df36c-2b55-44dc-a897-db9333f79bcd{fill:#231f20;}.bce0d0cd-5411-4af4-9da3-b44f2e8f0218,.f88e5f46-9248-4294-b607-77df4e54fe72{stroke:#231f20;}.afaa1083-7d0b-4656-9807-388bbc13fbda,.bce0d0cd-5411-4af4-9da3-b44f2e8f0218,.e189dfdd-ec32-46dc-992d-1cca15622995,.e54ac614-5ece-4acd-b01c-d01c5a8d03f5,.f7827923-5a53-43b5-9d5a-1a8bf76a6eb7,.f88e5f46-9248-4294-b607-77df4e54fe72{stroke-width:0.5px;}.a49ddf5b-3f22-41b4-a9f0-1bd28f6300fa,.e189dfdd-ec32-46dc-992d-1cca15622995,.e54ac614-5ece-4acd-b01c-d01c5a8d03f5{font-size:31px;}.a49ddf5b-3f22-41b4-a9f0-1bd28f6300fa,.afaa1083-7d0b-4656-9807-388bbc13fbda,.e189dfdd-ec32-46dc-992d-1cca15622995{fill:#2a2b2b;}.e189dfdd-ec32-46dc-992d-1cca15622995{stroke-linecap:round;}.e54ac614-5ece-4acd-b01c-d01c5a8d03f5,.f7827923-5a53-43b5-9d5a-1a8bf76a6eb7{stroke:#2a2b2b;}.afaa1083-7d0b-4656-9807-388bbc13fbda,.ef9df36c-2b55-44dc-a897-db9333f79bcd,.f7827923-5a53-43b5-9d5a-1a8bf76a6eb7{font-size:25px;}</style></defs><title>infopyr</title><g id="e2229cef-ee38-4a6a-a895-7872bd138917" data-name="pyramid"><polygon class="b5cc16c7-ffaa-42ae-9901-4a9ef3f46171" points="1.37 868.02 501.37 1156.7 1001.37 868.02 501.37 2 1.37 868.02"/><line class="b5cc16c7-ffaa-42ae-9901-4a9ef3f46171" x1="501.37" y1="4.4" x2="501.37" y2="1156.7"/><path d="M2990.4,131.54a1,1,0,0,0,1.38-.3l8.22-12.91,8.22,12.91a1,1,0,0,0,1.38.3,1,1,0,0,0,.31-1.38l-9.07-14.23a1,1,0,0,0-1.68,0l-9.07,14.23a1,1,0,0,0-.15.54A1,1,0,0,0,2990.4,131.54Z" transform="translate(-2498.63 -113.47)"/><polyline class="b5cc16c7-ffaa-42ae-9901-4a9ef3f46171" points="151.37 608.22 501.37 810.29 852.88 608.22"/><polyline class="b5cc16c7-ffaa-42ae-9901-4a9ef3f46171" points="251.37 435.01 502.13 579.79 751.37 433.14"/><polyline class="b5cc16c7-ffaa-42ae-9901-4a9ef3f46171" points="351.37 261.81 501.37 348.41 652.02 261.81"/></g><g id="a05b450d-95b2-47bc-952c-f37227abd1f0" data-name="Layer 5"><line class="a0d9646a-bd2e-4712-93d4-a3e46544d972" x1="151.37" y1="608.22" x2="501.37" y2="810.29"/><line class="a0d9646a-bd2e-4712-93d4-a3e46544d972" x1="251.37" y1="435.01" x2="502.13" y2="579.79"/><text class="a70d5c3f-2864-47e6-b9fe-a02b313ee3a7" transform="matrix(0.88, 0.48, -0.48, 0.88, 63.09, 787.9)">D</text><text class="a70d5c3f-2864-47e6-b9fe-a02b313ee3a7" transform="translate(81.46 798.07) rotate(28.94)">A</text><text class="a70d5c3f-2864-47e6-b9fe-a02b313ee3a7" transform="matrix(0.88, 0.48, -0.48, 0.88, 99.84, 808.23)">T</text><text class="a70d5c3f-2864-47e6-b9fe-a02b313ee3a7" transform="matrix(0.88, 0.48, -0.48, 0.88, 118.23, 818.4)">A</text><text class="a3e9d27e-5fd1-4267-a3a7-f0625d0498d5" transform="matrix(0.88, 0.48, -0.48, 0.88, 63.09, 787.9)">D</text><text class="a3e9d27e-5fd1-4267-a3a7-f0625d0498d5" transform="translate(81.46 798.07) rotate(28.94)">A</text><text class="a3e9d27e-5fd1-4267-a3a7-f0625d0498d5" transform="matrix(0.88, 0.48, -0.48, 0.88, 99.84, 808.23)">T</text><text class="a3e9d27e-5fd1-4267-a3a7-f0625d0498d5" transform="matrix(0.88, 0.48, -0.48, 0.88, 118.23, 818.4)">A</text><text class="bce0d0cd-5411-4af4-9da3-b44f2e8f0218" transform="matrix(0.88, 0.48, -0.48, 0.88, 63.09, 787.9)">D</text><text class="bce0d0cd-5411-4af4-9da3-b44f2e8f0218" transform="translate(81.46 798.07) rotate(28.94)">A</text><text class="bce0d0cd-5411-4af4-9da3-b44f2e8f0218" transform="matrix(0.88, 0.48, -0.48, 0.88, 99.84, 808.23)">T</text><text class="bce0d0cd-5411-4af4-9da3-b44f2e8f0218" transform="matrix(0.88, 0.48, -0.48, 0.88, 118.23, 818.4)">A</text><text class="a3e9d27e-5fd1-4267-a3a7-f0625d0498d5" transform="translate(211.1 527.28) rotate(30.21)">I</text><text class="a3e9d27e-5fd1-4267-a3a7-f0625d0498d5" transform="matrix(0.86, 0.5, -0.5, 0.86, 229.25, 537.85)">N</text><text class="a3e9d27e-5fd1-4267-a3a7-f0625d0498d5" transform="translate(247.4 548.41) rotate(30.21)">F</text><text class="a3e9d27e-5fd1-4267-a3a7-f0625d0498d5" transform="matrix(0.86, 0.5, -0.5, 0.86, 265.56, 558.99)">O</text><text class="a3e9d27e-5fd1-4267-a3a7-f0625d0498d5" transform="matrix(0.86, 0.5, -0.5, 0.86, 283.72, 569.56)">R</text><text class="a3e9d27e-5fd1-4267-a3a7-f0625d0498d5" transform="matrix(0.86, 0.5, -0.5, 0.86, 301.87, 580.13)">M</text><text class="a3e9d27e-5fd1-4267-a3a7-f0625d0498d5" transform="matrix(0.86, 0.5, -0.5, 0.86, 320.02, 590.69)">A</text><text class="a3e9d27e-5fd1-4267-a3a7-f0625d0498d5" transform="translate(338.17 601.26) rotate(30.21)">T</text><text class="a3e9d27e-5fd1-4267-a3a7-f0625d0498d5" transform="translate(356.34 611.84) rotate(30.21)">I</text><text class="a3e9d27e-5fd1-4267-a3a7-f0625d0498d5" transform="matrix(0.86, 0.5, -0.5, 0.86, 374.5, 622.41)">O</text><text class="a3e9d27e-5fd1-4267-a3a7-f0625d0498d5" transform="translate(392.64 632.97) rotate(30.21)">N</text><text class="f88e5f46-9248-4294-b607-77df4e54fe72" transform="translate(211.1 527.28) rotate(30.21)">I</text><text class="f88e5f46-9248-4294-b607-77df4e54fe72" transform="matrix(0.86, 0.5, -0.5, 0.86, 229.25, 537.85)">N</text><text class="f88e5f46-9248-4294-b607-77df4e54fe72" transform="translate(247.4 548.41) rotate(30.21)">F</text><text class="f88e5f46-9248-4294-b607-77df4e54fe72" transform="matrix(0.86, 0.5, -0.5, 0.86, 265.56, 558.99)">O</text><text class="f88e5f46-9248-4294-b607-77df4e54fe72" transform="matrix(0.86, 0.5, -0.5, 0.86, 283.72, 569.56)">R</text><text class="f88e5f46-9248-4294-b607-77df4e54fe72" transform="matrix(0.86, 0.5, -0.5, 0.86, 301.87, 580.13)">M</text><text class="f88e5f46-9248-4294-b607-77df4e54fe72" transform="matrix(0.86, 0.5, -0.5, 0.86, 320.02, 590.69)">A</text><text class="f88e5f46-9248-4294-b607-77df4e54fe72" transform="translate(338.17 601.26) rotate(30.21)">T</text><text class="f88e5f46-9248-4294-b607-77df4e54fe72" transform="translate(356.34 611.84) rotate(30.21)">I</text><text class="f88e5f46-9248-4294-b607-77df4e54fe72" transform="matrix(0.86, 0.5, -0.5, 0.86, 374.5, 622.41)">O</text><text class="f88e5f46-9248-4294-b607-77df4e54fe72" transform="translate(392.64 632.97) rotate(30.21)">N</text><text class="e189dfdd-ec32-46dc-992d-1cca15622995" transform="translate(304.93 350.43) rotate(29.48)">K</text><text class="e189dfdd-ec32-46dc-992d-1cca15622995" transform="matrix(0.87, 0.49, -0.49, 0.87, 321.1, 359.57)">N</text><text class="e189dfdd-ec32-46dc-992d-1cca15622995" transform="translate(337.31 368.73) rotate(29.48)">O</text><text class="e189dfdd-ec32-46dc-992d-1cca15622995" transform="translate(353.5 377.89) rotate(29.48)">W</text><text class="e189dfdd-ec32-46dc-992d-1cca15622995" transform="translate(369.7 387.05) rotate(29.48)">L</text><text class="e189dfdd-ec32-46dc-992d-1cca15622995" transform="translate(385.9 396.2) rotate(29.48)">E</text><text class="e189dfdd-ec32-46dc-992d-1cca15622995" transform="translate(402.09 405.36) rotate(29.48)">D</text><text class="e189dfdd-ec32-46dc-992d-1cca15622995" transform="matrix(0.87, 0.49, -0.49, 0.87, 418.29, 414.52)">G</text><text class="e189dfdd-ec32-46dc-992d-1cca15622995" transform="translate(434.47 423.67) rotate(29.48)">E</text><text class="a49ddf5b-3f22-41b4-a9f0-1bd28f6300fa" transform="translate(304.93 350.43) rotate(29.48)">K</text><text class="a49ddf5b-3f22-41b4-a9f0-1bd28f6300fa" transform="matrix(0.87, 0.49, -0.49, 0.87, 321.1, 359.57)">N</text><text class="a49ddf5b-3f22-41b4-a9f0-1bd28f6300fa" transform="translate(337.31 368.73) rotate(29.48)">O</text><text class="a49ddf5b-3f22-41b4-a9f0-1bd28f6300fa" transform="translate(353.5 377.89) rotate(29.48)">W</text><text class="a49ddf5b-3f22-41b4-a9f0-1bd28f6300fa" transform="translate(369.7 387.05) rotate(29.48)">L</text><text class="a49ddf5b-3f22-41b4-a9f0-1bd28f6300fa" transform="translate(385.9 396.2) rotate(29.48)">E</text><text class="a49ddf5b-3f22-41b4-a9f0-1bd28f6300fa" transform="translate(402.09 405.36) rotate(29.48)">D</text><text class="a49ddf5b-3f22-41b4-a9f0-1bd28f6300fa" transform="matrix(0.87, 0.49, -0.49, 0.87, 418.29, 414.52)">G</text><text class="a49ddf5b-3f22-41b4-a9f0-1bd28f6300fa" transform="translate(434.47 423.67) rotate(29.48)">E</text><text class="e54ac614-5ece-4acd-b01c-d01c5a8d03f5" transform="translate(304.93 350.43) rotate(29.48)">K</text><text class="e54ac614-5ece-4acd-b01c-d01c5a8d03f5" transform="matrix(0.87, 0.49, -0.49, 0.87, 321.1, 359.57)">N</text><text class="e54ac614-5ece-4acd-b01c-d01c5a8d03f5" transform="translate(337.31 368.73) rotate(29.48)">O</text><text class="e54ac614-5ece-4acd-b01c-d01c5a8d03f5" transform="translate(353.5 377.89) rotate(29.48)">W</text><text class="e54ac614-5ece-4acd-b01c-d01c5a8d03f5" transform="translate(369.7 387.05) rotate(29.48)">L</text><text class="e54ac614-5ece-4acd-b01c-d01c5a8d03f5" transform="translate(385.9 396.2) rotate(29.48)">E</text><text class="e54ac614-5ece-4acd-b01c-d01c5a8d03f5" transform="translate(402.09 405.36) rotate(29.48)">D</text><text class="e54ac614-5ece-4acd-b01c-d01c5a8d03f5" transform="matrix(0.87, 0.49, -0.49, 0.87, 418.29, 414.52)">G</text><text class="e54ac614-5ece-4acd-b01c-d01c5a8d03f5" transform="translate(434.47 423.67) rotate(29.48)">E</text><text class="afaa1083-7d0b-4656-9807-388bbc13fbda" transform="translate(401.42 176.56) rotate(30)">W</text><text class="afaa1083-7d0b-4656-9807-388bbc13fbda" transform="matrix(0.87, 0.5, -0.5, 0.87, 414.41, 184.06)">I</text><text class="afaa1083-7d0b-4656-9807-388bbc13fbda" transform="translate(427.42 191.57) rotate(30)">S</text><text class="afaa1083-7d0b-4656-9807-388bbc13fbda" transform="translate(440.42 199.08) rotate(30)">D</text><text class="afaa1083-7d0b-4656-9807-388bbc13fbda" transform="translate(453.4 206.57) rotate(30)">O</text><text class="afaa1083-7d0b-4656-9807-388bbc13fbda" transform="matrix(0.87, 0.5, -0.5, 0.87, 466.39, 214.08)">M</text><text class="ef9df36c-2b55-44dc-a897-db9333f79bcd" transform="translate(401.42 176.56) rotate(30)">W</text><text class="ef9df36c-2b55-44dc-a897-db9333f79bcd" transform="matrix(0.87, 0.5, -0.5, 0.87, 414.41, 184.06)">I</text><text class="ef9df36c-2b55-44dc-a897-db9333f79bcd" transform="translate(427.42 191.57) rotate(30)">S</text><text class="ef9df36c-2b55-44dc-a897-db9333f79bcd" transform="translate(440.42 199.08) rotate(30)">D</text><text class="ef9df36c-2b55-44dc-a897-db9333f79bcd" transform="translate(453.4 206.57) rotate(30)">O</text><text class="ef9df36c-2b55-44dc-a897-db9333f79bcd" transform="matrix(0.87, 0.5, -0.5, 0.87, 466.39, 214.08)">M</text><text class="f7827923-5a53-43b5-9d5a-1a8bf76a6eb7" transform="translate(401.42 176.56) rotate(30)">W</text><text class="f7827923-5a53-43b5-9d5a-1a8bf76a6eb7" transform="matrix(0.87, 0.5, -0.5, 0.87, 414.41, 184.06)">I</text><text class="f7827923-5a53-43b5-9d5a-1a8bf76a6eb7" transform="translate(427.42 191.57) rotate(30)">S</text><text class="f7827923-5a53-43b5-9d5a-1a8bf76a6eb7" transform="translate(440.42 199.08) rotate(30)">D</text><text class="f7827923-5a53-43b5-9d5a-1a8bf76a6eb7" transform="translate(453.4 206.57) rotate(30)">O</text><text class="f7827923-5a53-43b5-9d5a-1a8bf76a6eb7" transform="matrix(0.87, 0.5, -0.5, 0.87, 466.39, 214.08)">M</text></g></svg>